#!OML:ASF F:\VICON\USERDATA\INSTALL\rory3\rory3.ASF
:FULLY-SPECIFIED
:DEGREES
10
root 0.41858068554376027 17.781507663412746 -21.77958627886816 -1.9240151230187312 4.213913801939786 0.8538677368276626
lfemur 13.171986145021691 -3.057615940394143 -24.963290907636722
ltibia 21.941006085901428
lfoot -14.692191561346974 -4.385477609613635
ltoes -11.474195608394359
rfemur -26.61939089666782 1.8578707446165628 21.64660841403849
rtibia 22.229208483971384
rfoot -5.011433411287307 -10.66389372945856
rtoes -7.709217029854433
lowerback 11.21059778780743 -1.6801375948248105 -4.668706140157273
upperback -0.15369339744861343 -2.7073568606038205 2.197054763946385
thorax -6.135410059148787 -1.15108715776594 5.399464755827271
lowerneck -15.25681455867421 -2.616938626796374 -2.257024693445001
upperneck 21.511198083167642 -3.090299367334751 0.02368039589331783
head 9.332007567886052 -1.6266281948336685 -0.0004130019639731475
lclavicle -1.3551357416789153e-15 7.266333310534135e-16
lhumerus -22.08771427350841 -0.31822787496190896 83.06069061933904
lradius 28.14059521530563
lwrist 6.668812154516384
lhand -33.04958113672727 13.737711290025725
lfingers 7.125019999999999
lthumb -6.2620911385812 43.625111398351414
rclavicle -1.3551357416789153e-15 7.266333310534135e-16
rhumerus -39.75218551964355 -29.16938429313487 -69.2752185261828
rradius 20.228516858489776
rwrist 11.10518098731223
rhand -18.48629598635293 21.85320198732889
rfingers 7.125019999999999
rthumb 7.800994012961399 -7.982867914955282
11
root 0.3685402419664456 17.85410329683986 -20.78358670485455 -2.476881235077184 3.511806333596768 -0.6799248698197835
lfemur 11.933586963379401 -3.7765027229762502 -23.161393784739673
ltibia 30.21720129392804
lfoot -8.855927933231774 -7.624402368230097
ltoes -19.007286823388426
rfemur -25.527991678484685 1.7629110410591773 23.95490463871211
rtibia 26.148306400392336
rfoot -3.423855277669074 -7.633921997801415
rtoes 0.8914798291120305
lowerback 11.031799813865817 -1.6875375458855468 -3.285269656681508
upperback -0.37296371940622003 -2.499337720772094 2.6995182564478135
thorax -6.32793590763714 -1.0743778708815492 5.115195833516012
lowerneck -14.46932413750562 -2.4247132189755245 -2.4369813849788287
upperneck 21.905692773661514 -2.784963347736442 -0.05193354154669172
head 9.321407928197722 -1.5117224149355823 0.04908512696133674
lclavicle -1.3551356973928265e-15 7.266333332903466e-16
lhumerus -24.239210549559655 1.716093655929106 83.58158836751734
lradius 28.314394876249196
lwrist 5.681194882668272
lhand -32.88048202341777 13.506711745106216
lfingers 7.125019999999999
lthumb -6.098792025242216 43.39891184311964
rclavicle -1.3551356973928265e-15 7.266333332903466e-16
rhumerus -41.032183488161465 -31.99937937032192 -66.33362569833788
rradius 18.16632120394705
rwrist 14.677571715823623
rhand -19.114291168809736 20.773006245721223
rfingers 7.125019999999999
rthumb 7.194788831981201 -9.0847235588142
12
root 0.3120020004920576 17.990095117033903 -19.767787139309277 -3.086106950795839 2.5847796762666744 -1.2784941552946976
lfemur 7.722729745994058 -1.607012432651055 -21.122897039623073
ltibia 40.68109523526222
lfoot 6.097945740507736 -13.875182252918036
ltoes -6.787681073754681
rfemur -22.740293675434273 1.324842408609891 25.51570208595493
rtibia 28.785304998438352
rfoot -5.636722676187434 -7.064173552560305
rtoes 4.948896573280231
lowerback 10.571205033119128 -1.740747193985794 -3.2344097859609944
upperback -0.6818087218121966 -2.523507620828503 3.1833319904857555
thorax -6.374434904960717 -1.073477879248173 5.595114014103544
lowerneck -12.539447612028443 -2.1604395323558823 -3.0747496597423503
upperneck 21.763794683468664 -2.292349769513745 -0.23213282425257953
head 8.915301732893498 -1.3584280449209871 0.17637389025281497
lclavicle -1.355135768037494e-15 7.266333595738668e-16
lhumerus -28.057203941130034 4.133519533515944 84.060586296827
lradius 29.30859293672152
lwrist 6.410162868998157
lhand -32.118786017457694 21.85959528951401
lfingers 7.125019999999999
lthumb -5.363416018094462 51.771695380010875
rclavicle -1.355135768037494e-15 7.266333595738668e-16
rhumerus -41.547282670648656 -30.008882832816315 -66.42212548255877
rradius 18.36232079093685
rwrist 14.493372193879923
rhand -17.37370452138247 22.107000986791974
rfingers 7.125019999999999
rthumb 8.874725477347797 -7.6863990870326315
13
root 0.25129488868327265 18.080589673854202 -18.825287542413953 -3.721712481002713 2.2624708384468932 -4.441195096142762
lfemur 1.5010138574222784 -0.9992081529130126 -16.205304891580187
ltibia 52.08518863221444
lfoot 21.75186864995119 -19.157573704698596
ltoes -5.424542663431307
rfemur -18.01569705986882 1.4378920556945858 29.711295223866237
rtibia 27.352905759969993
rfoot -6.316721876769703 -7.330042827042542
rtoes 4.99783650988519
lowerback 10.805902373634211 -1.013242005310564 0.6754332757020746
upperback 0.2500121485274032 -1.0682236384916877 3.265660924228352
thorax -5.756598227619373 -0.4987352222512749 3.2150930369745625
lowerneck -16.354901201830064 -3.0443784154507023 -1.8935413760098452
upperneck 22.573083791242276 -3.700271415656548 -0.2370697744638639
head 9.905408076384392 -1.9051679650069537 -0.25711238425740657
lclavicle -1.3551358056573638e-15 7.266333959234875e-16
lhumerus -27.400105078479186 1.7901935295672975 84.80018309957738
lradius 29.141193263292568
lwrist 6.832151703314172
lhand -31.5778888537137 22.044394925449616
lfingers 7.125019999999999
lthumb -4.841178853672199 51.969094991870975
rclavicle -1.3551358056573638e-15 7.266333959234875e-16
rhumerus -39.53498586436066 -29.75998326578035 -69.62621767038104
rradius 19.856017643419868
rwrist 11.316780438144455
rhand -16.230213293453556 24.181792807461832
rfingers 7.125019999999999
rthumb 9.978076706272276 -5.56167748703231
